<?xml version="1.0" encoding="UTF-8"?>
<svg width="90px" height="75px" viewBox="0 0 90 75" version="1.1" xmlns="http://www.w3.org/2000/svg" xmlns:xlink="http://www.w3.org/1999/xlink">
    <!-- Generator: Sketch 64 (93537) - https://sketch.com -->
    <title>Icons / Use Cases / icon-junk-accent</title>
    <desc>Created with Sketch.</desc>
    <g id="Icons-/-Use-Cases-/-icon-junk-accent" stroke="none" stroke-width="1" fill="none" fill-rule="evenodd">
        <g id="icon-junk" transform="translate(-2.000000, -2.000000)">
            <polygon id="Rectangle-15" fill="#E9E8E8" points="78.5469919 57.3674564 83.8101498 57.3674564 83.8101498 69.545819 78.5469919 69.545819"></polygon>
            <path d="M79.9680445,68.1247664 L82.3890972,68.1247664 L82.3890972,58.7885091 L79.9680445,58.7885091 L79.9680445,68.1247664 Z M85.2312024,55.9464038 L85.2312024,70.9668716 L77.1259393,70.9668716 L77.1259393,55.9464038 L85.2312024,55.9464038 Z" id="Rectangle-15" fill="#242120" fill-rule="nonzero"></path>
            <polygon id="Rectangle-15-Copy" fill="#E9E8E8" points="15.3890972 61.7534213 20.6522551 61.7534213 20.6522551 72.7183336 18.4592726 71.8411406 15.3890972 73.9317839"></polygon>
            <path d="M16.8101498,71.2448782 L18.2846895,70.2407869 L19.2312024,70.619392 L19.2312024,63.174474 L16.8101498,63.174474 L16.8101498,71.2448782 Z M13.9680445,76.6186896 L13.9680445,60.3323687 L22.0733077,60.3323687 L22.0733077,74.8172752 L18.6338557,73.4414944 L13.9680445,76.6186896 Z" id="Rectangle-15-Copy" fill="#242120" fill-rule="nonzero"></path>
            <g id="Group-30" transform="translate(45.981658, 35.208742) rotate(-8.000000) translate(-45.981658, -35.208742) translate(4.481658, 6.208742)">
                <g id="Group-4" transform="translate(0.000000, 0.000000)">
                    <polygon id="Rectangle-14" fill="#FFFFFF" points="8.07234736 2 74.6207058 2 74.6207058 56.3478261 8.07234736 56.3478261"></polygon>
                    <path d="M9.49339999,3.42105263 L9.49339999,54.9267735 L73.1996532,54.9267735 L73.1996532,3.42105263 L9.49339999,3.42105263 Z M76.0417585,0.578947368 L76.0417585,57.7688787 L6.65129472,57.7688787 L6.65129472,0.578947368 L76.0417585,0.578947368 Z" id="Rectangle-14" fill="#242120" fill-rule="nonzero"></path>
                    <polygon id="Rectangle" fill="#E9E8E8" points="2.85660072 48.720061 78.2374644 48.720061 78.2374644 54.4408848 2.85660072 54.4408848"></polygon>
                    <polygon id="Rectangle" fill="#E7412A" fill-rule="nonzero" points="2.85660072 30.051106 78.2374644 30.051106 78.2374644 48.6437834 2.85660072 48.6437834"></polygon>
                    <path d="M12.7867887,22.0228833 L12.786,43.9518833 L69.991,43.9518833 L69.9914022,22.0228833 L80.7781908,22.0228833 L80.778,43.9518833 L80.8072666,43.9527079 L80.8072666,56.3478261 L2,56.3478261 L2,22.0228833 L12.7867887,22.0228833 Z" id="Rectangle-14-Copy" fill="#FFFFFF"></path>
                    <path d="M68.5703495,42.5316552 L68.5703495,20.6018307 L82.1992435,20.6018307 L82.1992435,42.5316552 L82.2283192,57.7688787 L0.578947368,57.7688787 L0.578947368,20.6018307 L14.2078413,20.6018307 L14.2078413,42.5316552 L68.5703495,42.5316552 Z M71.4124548,23.4439359 L71.4124548,45.3737605 L11.365736,45.3737605 L11.365736,23.4439359 L3.42105263,23.4439359 L3.42105263,54.9267735 L79.386214,54.9267735 L79.386214,45.3737605 L79.3571382,23.4439359 L71.4124548,23.4439359 Z" id="Rectangle-14-Copy" fill="#242120" fill-rule="nonzero"></path>
                </g>
                <polygon id="Rectangle-4" fill="#242120" fill-rule="nonzero" transform="translate(63.156550, 11.970252) scale(1, -1) translate(-63.156550, -11.970252) " points="56.9912302 14.2486651 56.9912302 16.143402 69.3218705 16.143402 69.3218705 7.79710145 67.4271336 7.79710145 67.4271336 14.2486651"></polygon>
                <polygon id="Rectangle-4" fill="#242120" fill-rule="nonzero" transform="translate(20.424228, 11.970252) scale(-1, -1) translate(-20.424228, -11.970252) " points="14.2589081 14.2486651 14.2589081 16.143402 26.5895484 16.143402 26.5895484 7.79710145 24.6948116 7.79710145 24.6948116 14.2486651"></polygon>
                <polygon id="Line" fill="#242120" fill-rule="nonzero" points="40.4203988 2.00915332 40.4203988 44.2109068 43.2625041 44.2109068 43.2625041 2.00915332"></polygon>
                <polygon id="Line" fill="#242120" fill-rule="nonzero" points="11.5259578 32.9595728 71.4206954 32.9595728 71.4206954 30.1174676 11.5259578 30.1174676"></polygon>
            </g>
            <g id="Group-32" transform="translate(59.221662, 24.102480) rotate(1.000000) translate(-59.221662, -24.102480) translate(55.274294, 20.593708)" fill="#FFFFFF" stroke="#242120">
                <rect id="Rectangle-44" x="3.13157895" y="0.5" width="1" height="6.01754386"></rect>
                <rect id="Rectangle-44-Copy" x="5.76315789" y="0.5" width="1" height="6.01754386"></rect>
                <g id="Group-31" transform="translate(3.947368, 3.947368) rotate(-270.000000) translate(-3.947368, -3.947368) translate(2.192982, 0.438596)">
                    <path d="" id="Rectangle-44-Copy-2"></path>
                    <path d="" id="Rectangle-44-Copy-3"></path>
                </g>
            </g>
            <g id="Group-32-Copy" transform="translate(11.889455, 59.130972) rotate(-45.000000) translate(-11.889455, -59.130972) translate(7.942086, 55.622200)" fill="#FFFFFF" stroke="#242120">
                <rect id="Rectangle-44" x="3.13157895" y="0.5" width="1" height="6.01754386"></rect>
                <rect id="Rectangle-44-Copy" x="5.76315789" y="0.5" width="1" height="6.01754386"></rect>
                <g id="Group-31" transform="translate(3.947368, 3.947368) rotate(-270.000000) translate(-3.947368, -3.947368) translate(2.192982, 0.438596)">
                    <path d="" id="Rectangle-44-Copy-2"></path>
                    <path d="" id="Rectangle-44-Copy-3"></path>
                </g>
            </g>
            <path d="M23.283834,42.5165321 C23.283834,42.5165321 23.8637963,43.8586631 26.0567788,45.1744526 C28.0580723,46.3752287 32.2305347,46.1039176 33.8101498,46.2863632 C40.5351386,47.0630998 42.5820796,46.1986653 42.5820796,39.8235968 C29.7165826,41.618887 23.283834,42.5165321 23.283834,42.5165321 Z" id="Path-16" fill="#242120"></path>
            <path d="M32.4920869,16.0385167 C32.4920869,16.0385167 32.9061261,17.4876538 32.4920869,18.3157322 C29.8205,23.6589059 40.5804224,17.9534479 33.5271849,15.417458 C33.5271849,15.417458 32.2850673,14.7963992 32.4920869,16.0385167 Z" id="Path-21" fill="#A7A6A6"></path>
            <circle id="Oval-25" fill="#A7A6A6" cx="37.7575182" cy="21.8411406" r="1.31578947"></circle>
            <circle id="Oval-25-Copy" fill="#A7A6A6" cx="30.3013779" cy="24.0341231" r="1"></circle>
        </g>
    </g>
</svg>