<?xml version="1.0" encoding="UTF-8"?>
<svg width="90px" height="75px" viewBox="0 0 90 75" version="1.1" xmlns="http://www.w3.org/2000/svg" xmlns:xlink="http://www.w3.org/1999/xlink">
    <!-- Generator: Sketch 64 (93537) - https://sketch.com -->
    <title>Icons / Use Cases / icon-donate-accent</title>
    <desc>Created with Sketch.</desc>
    <g id="Icons-/-Use-Cases-/-icon-donate-accent" stroke="none" stroke-width="1" fill="none" fill-rule="evenodd">
        <g id="donate_icon" transform="translate(7.000000, 0.000000)">
            <path d="M46.640625,2.21964003 C42.9712223,2.21964003 39.8348497,4.83633307 38.1111551,6.640625 C36.3874604,4.83633307 33.2580103,2.21964003 29.5895965,2.21964003 C23.2678995,2.21964003 18.8523536,6.62826345 18.8523536,12.9371044 C18.8523536,19.8882516 24.3349486,24.3824169 29.6395372,28.7277492 C32.1429984,30.78125 34.7354628,32.903481 36.7227057,35.2586036 C37.0579509,35.6517009 37.5469739,35.8806369 38.0612144,35.8806369 L38.1620847,35.8806369 C38.6787975,35.8806369 39.1678204,35.6517009 39.4996044,35.2586036 C41.4903085,32.9054589 44.0807951,30.78125 46.5862342,28.7292326 C51.8908228,24.3839003 57.376879,19.8917128 57.376879,12.9371044 C57.376879,6.62826345 52.9613331,2.21964003 46.640625,2.21964003" id="Fill-10" fill="#E7412A" fill-rule="nonzero"></path>
            <path d="M47.593802,0.474683544 C52.105317,0.474683544 56.0915798,3.38457675 57.8054907,7.74212128 C58.1764996,8.68434394 58.4323406,9.67184861 58.5599637,10.6639364 C59.5259984,17.3375856 55.591117,23.7324223 48.556548,29.6613702 C46.3928536,31.4849974 44.0807979,33.1326682 41.768845,34.5796079 C40.9592641,35.0862856 40.2065666,35.5322367 39.5294116,35.9140558 C39.290858,36.0485662 39.0782669,36.1657106 38.8939754,36.2650549 C38.7809104,36.3260037 38.7008579,36.3682604 38.6561575,36.3913867 L38.0060061,36.7277506 L37.3540944,36.394811 C37.309126,36.371845 37.2285845,36.3298688 37.1148243,36.2693102 C36.9293932,36.1705986 36.7154855,36.054176 36.4754528,35.9204664 C35.79409,35.5409149 35.0367108,35.0974231 34.2220897,34.5933135 C31.8957018,33.1536818 29.5691933,31.5127525 27.3919325,29.694619 C20.3435937,23.8088654 16.3861383,17.4426754 17.3110088,10.7844446 C17.445445,9.75422449 17.694789,8.76716613 18.0555392,7.8455778 C19.7491828,3.47151001 23.7365281,0.535599252 28.2583748,0.52324835 C31.2206681,0.516378468 33.9819224,1.7600024 36.04455,3.9289971 C36.1034207,3.98530817 36.1579235,4.04220431 36.210761,4.10490763 C36.8155228,4.76322328 37.4105012,5.46175574 37.9292116,6.14924071 C38.0350974,6.00825489 38.1452701,5.86506502 38.2595163,5.71971773 C38.7292366,5.12212625 39.1880672,4.58679896 39.6775629,4.04415306 C39.6834888,4.03328275 39.7464747,3.96406768 39.8384078,3.8759786 C41.8857166,1.71814101 44.6357729,0.481476744 47.593802,0.474683544 Z M41.7648919,5.98139328 C41.761981,5.98462597 41.7590709,5.98785892 41.7561615,5.99109212 C41.7536639,5.99380097 41.7566385,5.99051384 41.7648919,5.98139328 Z M38.1305396,33.4331613 C38.7709444,33.0720639 39.4863851,32.6481865 40.2578759,32.1653476 C42.4632711,30.7850971 44.6685634,29.2135106 46.7210605,27.4836038 C53.0782648,22.1255594 56.5294116,16.5168719 55.7382219,11.0498866 C55.6378125,10.2704198 55.4410681,9.51101849 55.1552324,8.78510341 C53.8568316,5.48397546 50.8962165,3.32278105 47.5970742,3.32278105 C45.4277973,3.3277656 43.4071571,4.24098091 41.8828464,5.8592267 C41.8016645,5.93904286 41.8117953,5.92798204 41.765631,5.98077211 C40.6436232,7.22747055 39.6430247,8.50140424 39.2202516,9.40119291 L37.9408569,12.1241311 L36.6459804,9.40852101 C36.2149145,8.50449112 35.1324421,7.13840148 34.0879057,6.00404012 L34.0140365,5.9170695 C32.4451548,4.27639089 30.4245284,3.36633373 28.2655669,3.37134047 C24.9562256,3.38037965 21.9941254,5.5613951 20.7095958,8.87884292 C20.432694,9.5862486 20.2401501,10.3484572 20.1335967,11.1646288 C19.3776698,16.6069071 22.8482134,22.1898229 29.2174634,27.5084997 C31.2826826,29.2330722 33.5016883,30.7981778 35.7208148,32.1714332 C36.4971237,32.6518342 37.2170367,33.0733873 37.8614488,33.4323554 C37.9085434,33.4585894 37.953919,33.4837648 37.9975399,33.507875 C38.0402007,33.4840024 38.0845451,33.4590956 38.1305396,33.4331613 Z" id="Heart" fill="#242120" fill-rule="nonzero"></path>
            <path d="M53.9330414,12.9308565 C53.8404456,12.2120459 53.6591091,11.5121165 53.3961354,10.8442624 C52.1818017,7.75687143 49.3588913,5.69620253 46.1651687,5.69620253 L46.1651687,7.59493671 C48.5528243,7.59493671 50.6919696,9.15647057 51.6292966,11.5395839 C51.8354881,12.0632328 51.9774269,12.6110934 52.0498677,13.1734433 L53.9330414,12.9308565 Z" id="Heart" fill="#242120" fill-rule="nonzero"></path>
            <g id="Group-2" transform="translate(0.000000, 9.493671)">
                <g id="Group" transform="translate(1.898734, 0.000000)">
                    <path d="M59.6593157,25.7837223 C60.240803,25.202235 61.0136472,23.9329509 61.835443,23.9329509 C62.0322389,23.9329509 62.2250791,23.952235 62.4139636,23.9878362 L62.6013647,24.0318434 C63.1299446,24.1668315 63.6155063,24.4382911 64.0115704,24.8343552 C64.5930578,25.4158426 64.9129747,26.1886867 64.9129747,27.0104826 C64.9129747,27.8322785 64.5930578,28.6051226 64.0120649,29.1861155 L51.5001978,41.6979826 C50.996341,42.2018394 64.7641416,24.9723101 64.140625,24.693928 L64.140625,5.84157437 C64.140625,3.66396361 65.9063489,1.89873418 68.0839597,1.89873418 C70.2615704,1.89873418 72.0267998,3.66396361 72.0267998,5.84157437 L72.0267998,29.3552215 C72.0267998,35.5523141 70.6343948,36.3182358 68.6150119,38.5462816 C66.595629,40.774822 54.6771163,55.5251187 54.6771163,55.5251187 L54.6771163,63.411788 L41.8062698,63.411788 L41.7721519,62.4248418 L41.7721519,50.7936116 C41.7721519,44.909019 43.091871,41.4017998 46.6416139,37.852057 L59.6593157,25.7837223 Z" id="Fill-11" fill="#FFFFFF"></path>
                    <path d="M17.8871638,25.7837223 C18.4686511,25.202235 19.2414953,23.9329509 20.0632911,23.9329509 C20.260087,23.9329509 20.4529272,23.952235 20.6418117,23.9878362 L20.8292128,24.0318434 C21.3577927,24.1668315 21.8433544,24.4382911 22.2394185,24.8343552 C22.8209059,25.4158426 23.1408228,26.1886867 23.1408228,27.0104826 C23.1408228,27.8322785 22.8209059,28.6051226 22.239913,29.1861155 L9.72804589,41.6979826 C9.22418908,42.2018394 22.9919897,24.9723101 22.3684731,24.693928 L22.3684731,5.84157437 C22.3684731,3.66396361 24.134197,1.89873418 26.3118078,1.89873418 C28.4894185,1.89873418 30.2546479,3.66396361 30.2546479,5.84157437 L30.2546479,29.3552215 C30.2546479,35.5523141 28.8622429,36.3182358 26.84286,38.5462816 C24.8234771,40.774822 12.9049644,55.5251187 12.9049644,55.5251187 L12.9049644,63.411788 L0.0341178797,63.411788 L0,62.4248418 L0,50.7936116 C0,44.909019 1.31971915,41.4017998 4.86946203,37.852057 L17.8871638,25.7837223 Z" id="Fill-11" fill="#FFFFFF" transform="translate(15.127324, 32.655261) scale(-1, 1) translate(-15.127324, -32.655261) "></path>
                    <path d="M63.005109,28.1791596 C63.3189213,27.8653474 63.4889241,27.4547655 63.4889241,27.0104826 C63.4889241,26.5661509 63.3188868,26.1555834 63.0046146,25.8413111 C62.7942995,25.630996 62.5367657,25.4851005 62.2758128,25.4181825 L62.1502004,25.3872465 C62.0430316,25.3670472 61.9385575,25.3570016 61.835443,25.3570016 C61.9608802,25.3570016 61.9887133,25.3445054 61.9435368,25.380492 C61.8130111,25.4844657 61.6507793,25.6535498 61.4230146,25.922017 C61.3585419,25.9980112 61.1210403,26.2834143 61.0706699,26.3430433 C60.914961,26.527373 60.7924061,26.6645436 60.6662715,26.7906782 L47.6485698,38.8590128 C44.3786104,42.1289722 43.1962025,45.2714169 43.1962025,50.7936116 L43.1953809,61.9877373 L53.2530657,61.9877373 L53.2530657,55.0216909 L53.5694653,54.6301162 C53.6786183,54.495029 53.8832455,54.2419507 54.1698658,53.8877328 C54.6474753,53.2974823 55.1801099,52.6398023 55.7542906,51.9315417 C57.3948768,49.9078539 59.0398216,47.8841274 60.5813735,45.9950564 C60.6343572,45.9301304 60.6343572,45.9301304 60.6873451,45.865208 C64.2795322,41.4640932 66.7225003,38.5140367 67.5598599,37.5899477 C67.7751029,37.3524636 68.5708171,36.5068897 68.7476145,36.3096306 C70.1405463,34.755488 70.6027492,33.3438926 70.6027492,29.3552215 L70.6027492,5.84157437 C70.6027492,4.45044506 69.475089,3.32278481 68.0839597,3.32278481 C66.6926808,3.32278481 65.5646756,4.45059459 65.5646756,5.84157437 L65.5646756,24.3959166 C65.6029376,24.5994578 65.5968465,24.8109029 65.5601598,25.0162943 C65.5274343,25.1995092 65.4711224,25.3554717 65.3925717,25.5251317 C65.2994368,25.7262918 65.1644015,25.9618797 64.9809125,26.252363 C64.671278,26.7425483 64.2062262,27.4140978 63.5915351,28.2634214 C62.5368577,29.7206775 61.0644527,31.6703765 59.2166451,34.06878 C59.0840454,34.2408462 59.0840454,34.2408462 58.9513916,34.4128107 C57.6289268,36.1267621 56.7739182,37.224155 54.4573835,40.1889538 C53.698094,41.1607246 53.3273629,41.6363658 53.0472869,41.9990676 C52.8851967,42.2089763 52.7724379,42.3567755 52.7096298,42.4416215 C52.7191643,42.4214728 52.7191643,42.4214728 52.7711896,42.3219979 C52.8099485,42.242261 52.8099485,42.242261 52.8733519,42.0320875 C52.9095905,41.8688725 52.9095905,41.8688725 52.9002392,41.5355923 C52.79703,41.0325504 52.79703,41.0325504 52.2141864,40.4844053 C51.0583404,40.2700914 51.0583404,40.2700914 50.8096533,40.4565138 C50.6544891,40.5513894 50.6544891,40.5513894 50.5938138,40.6006687 C50.5353387,40.65111 50.5218148,40.662776 50.5075557,40.676713 L63.005109,28.1791596 Z M62.7165744,25.6176685 L63.5600635,25.994262 C62.810276,25.6595036 62.6617638,25.0455072 62.7564331,24.5154978 C62.7752868,24.4099445 62.7928034,24.3614304 62.8080396,24.328522 C62.7917747,24.3636523 62.7607878,24.4208472 62.7165744,24.4963755 L62.7165744,25.6176685 Z M62.7165744,5.84157437 C62.7165744,2.87752123 65.1198283,0.474683544 68.0839597,0.474683544 C71.0480519,0.474683544 73.4508505,2.87748216 73.4508505,5.84157437 L73.4508505,29.3552215 C73.4508505,34.003107 72.7666346,36.092743 70.8685204,38.2105354 C70.662514,38.440384 69.8595025,39.2937125 69.6702694,39.502499 C68.8829074,40.3714121 66.4366038,43.3254963 62.893796,47.6661119 C62.8408966,47.7309261 62.8408966,47.7309261 62.788,47.7957452 C61.2486029,49.6821757 59.6055054,51.7036295 57.966699,53.725122 C57.3930923,54.4326745 56.8610055,55.0896781 56.3839275,55.6792718 C56.2782759,55.8098406 56.1837962,55.9266286 56.1011669,56.0287879 L56.1011669,64.8358386 L40.4305967,64.8358386 L40.3830693,63.4609868 L40.3481013,62.4248418 L40.3481013,50.7936116 C40.3481013,44.546774 41.8050394,40.6747198 45.6734588,36.807741 L58.6683744,24.7605307 C58.7240909,24.7033147 58.7961675,24.6220701 58.8949419,24.50514 C58.9355224,24.4571004 59.1756338,24.1685611 59.2512091,24.0794803 C60.1465627,23.0241233 60.793359,22.5089003 61.835443,22.5089003 C62.11183,22.5089003 62.3864235,22.5347042 62.7165743,22.5971184 L62.7165744,5.84157437 Z" id="Fill-11" fill="#242120" fill-rule="nonzero"></path>
                    <path d="M59.6593157,24.6355815 C60.240803,24.0540941 61.0136472,23.7341772 61.835443,23.7341772 C62.0322389,23.7341772 62.2250791,23.7534612 62.4139636,23.7890625 L62.6013647,23.8330696 C63.1299446,23.9680578 63.6155063,24.2395174 64.0115704,24.6355815 C64.5930578,25.2170688 64.9129747,25.989913 64.9129747,26.8117089 C64.9129747,27.6335047 64.5930578,28.4063489 64.0120649,28.9873418 L51.5001978,41.4992089 C50.996341,42.0030657 41.7721519,50.5948378 41.7721519,50.5948378 C41.7721519,44.7102453 43.091871,41.2030261 46.6416139,37.6532832 L59.6593157,24.6355815 Z" id="Fill-11-Copy" fill="#FFFFFF"></path>
                    <path d="M45.6752118,45.0085843 C48.4795004,42.3911388 50.2977024,40.6877925 50.4932419,40.492253 L63.005109,27.9803859 C63.3189213,27.6665737 63.4889241,27.2559918 63.4889241,26.8117089 C63.4889241,26.3673772 63.3188868,25.9568096 63.0046146,25.6425373 C62.7942995,25.4322223 62.5367657,25.2863267 62.2758128,25.2194087 L62.1502004,25.1884728 C62.0430316,25.1682734 61.9385575,25.1582278 61.835443,25.1582278 C61.3911114,25.1582278 60.9805438,25.3282651 60.6662715,25.6425373 L47.6485698,38.6602391 C45.129574,41.1792349 43.8493958,43.6225595 43.3942521,47.1363999 C44.1740731,46.4092784 44.9426345,45.6923459 45.6752118,45.0085843 Z M61.835443,22.3101266 C62.1182068,22.3101266 62.3990934,22.3371349 62.7395155,22.4027234 L62.9537283,22.4533015 C63.7347457,22.6527568 64.4450548,23.0551542 65.0185263,23.6286256 C65.8669595,24.4770589 66.3370253,25.612068 66.3370253,26.8117089 C66.3370253,28.0112151 65.8670547,29.1462637 65.0190207,29.9942976 L52.5071536,42.5061647 C52.2732912,42.7400272 50.5250689,44.3778144 47.6337061,47.0765325 C46.5519441,48.0862107 45.4092002,49.1519272 44.2664642,50.2170497 C43.8665129,50.5898368 43.6189261,50.8205588 43.1618281,51.2464645 C42.8189899,51.5658708 42.8189899,51.5658708 42.7427523,51.6368815 L40.3481013,53.8673536 L40.3481013,50.5948378 C40.3481013,44.3480003 41.8050394,40.4759461 45.6346581,36.6463274 L58.6523598,23.6286256 C59.500793,22.7801924 60.6358022,22.3101266 61.835443,22.3101266 Z" id="Fill-11-Copy" fill="#242120" fill-rule="nonzero"></path>
                    <polygon id="Path-9" fill="#FFFFFF" points="43.3860296 46.9936709 43.1962025 51.2658228 43.6708861 52.2151899 52.6898734 43.1962025 49.8417722 40.3481013 44.1455696 46.0443038"></polygon>
                </g>
                <g id="Group" transform="translate(17.088608, 32.753165) scale(-1, 1) translate(-17.088608, -32.753165) ">
                    <path d="M23.1316913,28.1791596 C23.4455035,27.8653474 23.6155063,27.4547655 23.6155063,27.0104826 C23.6155063,26.5661509 23.4454691,26.1555834 23.1311968,25.8413111 C22.9208817,25.630996 22.6633479,25.4851005 22.4023951,25.4181825 L22.2767827,25.3872465 C22.1696138,25.3670472 22.0651397,25.3570016 21.9620253,25.3570016 C22.0874625,25.3570016 22.1152956,25.3445054 22.070119,25.380492 C21.9395933,25.4844657 21.7773616,25.6535498 21.5495969,25.922017 C21.4851242,25.9980112 21.2476225,26.2834143 21.1972521,26.3430433 C21.0415432,26.527373 20.9189884,26.6645436 20.7928538,26.7906782 L7.77515206,38.8590128 C4.5051927,42.1289722 3.32278481,45.2714169 3.32278481,50.7936116 L3.32196316,61.9877373 L13.3796479,61.9877373 L13.3796479,55.0216909 L13.6960476,54.6301162 C13.8052005,54.495029 14.0098278,54.2419507 14.2964481,53.8877328 C14.7740576,53.2974823 15.3066922,52.6398023 15.8808729,51.9315417 C17.5214591,49.9078539 19.1664039,47.8841274 20.7079558,45.9950564 C20.7609395,45.9301304 20.7609395,45.9301304 20.8139273,45.865208 C24.4061145,41.4640932 26.8490826,38.5140367 27.6864422,37.5899477 C27.9016852,37.3524636 28.6973994,36.5068897 28.8741968,36.3096306 C30.2671285,34.755488 30.7293315,33.3438926 30.7293315,29.3552215 L30.7293315,5.84157437 C30.7293315,4.45044506 29.6016712,3.32278481 28.2105419,3.32278481 C26.8192631,3.32278481 25.6912579,4.45059459 25.6912579,5.84157437 L25.6912579,24.3959166 C25.7295199,24.5994578 25.7234288,24.8109029 25.6867421,25.0162943 C25.6540166,25.1995092 25.5977047,25.3554717 25.519154,25.5251317 C25.4260191,25.7262918 25.2909837,25.9618797 25.1074947,26.252363 C24.7978603,26.7425483 24.3328085,27.4140978 23.7181174,28.2634214 C22.66344,29.7206775 21.191035,31.6703765 19.3432274,34.06878 C19.2106277,34.2408462 19.2106277,34.2408462 19.0779739,34.4128107 C17.7555091,36.1267621 16.9005004,37.224155 14.5839658,40.1889538 C13.8246762,41.1607246 13.4539452,41.6363658 13.1738692,41.9990676 C13.011779,42.2089763 12.8990202,42.3567755 12.836212,42.4416215 C12.8457466,42.4214728 12.8457466,42.4214728 12.8977719,42.3219979 C12.9365308,42.242261 12.9365308,42.242261 12.9999342,42.0320875 C13.0361728,41.8688725 13.0361728,41.8688725 13.0268215,41.5355923 C12.9236123,41.0325504 12.9236123,41.0325504 12.3407687,40.4844053 C11.1849227,40.2700914 11.1849227,40.2700914 10.9362356,40.4565138 C10.7810714,40.5513894 10.7810714,40.5513894 10.7203961,40.6006687 C10.661921,40.65111 10.6483971,40.662776 10.634138,40.676713 L23.1316913,28.1791596 Z M22.8431566,25.6176685 L23.6866458,25.994262 C22.9368582,25.6595036 22.7883461,25.0455072 22.8830154,24.5154978 C22.9018691,24.4099445 22.9193857,24.3614304 22.9346219,24.328522 C22.918357,24.3636523 22.88737,24.4208472 22.8431566,24.4963755 L22.8431566,25.6176685 Z M22.8431566,5.84157437 C22.8431566,2.87752123 25.2464106,0.474683544 28.2105419,0.474683544 C31.1746341,0.474683544 33.5774328,2.87748216 33.5774328,5.84157437 L33.5774328,29.3552215 C33.5774328,34.003107 32.8932169,36.092743 30.9951027,38.2105354 C30.7890963,38.440384 29.9860848,39.2937125 29.7968517,39.502499 C29.0094896,40.3714121 26.5631861,43.3254963 23.0203783,47.6661119 C22.9674788,47.7309261 22.9674788,47.7309261 22.9145823,47.7957452 C21.3751852,49.6821757 19.7320877,51.7036295 18.0932812,53.725122 C17.5196746,54.4326745 16.9875878,55.0896781 16.5105098,55.6792718 C16.4048582,55.8098406 16.3103785,55.9266286 16.2277492,56.0287879 L16.2277492,64.8358386 L0.557178993,64.8358386 L0.50965155,63.4609868 L0.474683544,62.4248418 L0.474683544,50.7936116 C0.474683544,44.546774 1.93162165,40.6747198 5.80004108,36.807741 L18.7949566,24.7605307 C18.8506731,24.7033147 18.9227497,24.6220701 19.0215241,24.50514 C19.0621047,24.4571004 19.3022161,24.1685611 19.3777913,24.0794803 C20.273145,23.0241233 20.9199413,22.5089003 21.9620253,22.5089003 C22.2384122,22.5089003 22.5130058,22.5347042 22.8431566,22.5971184 L22.8431566,5.84157437 Z" id="Fill-11" fill="#242120" fill-rule="nonzero"></path>
                    <path d="M19.7858979,24.6355815 C20.3673853,24.0540941 21.1402294,23.7341772 21.9620253,23.7341772 C22.1588212,23.7341772 22.3516614,23.7534612 22.5405459,23.7890625 L22.727947,23.8330696 C23.2565269,23.9680578 23.7420886,24.2395174 24.1381527,24.6355815 C24.71964,25.2170688 25.039557,25.989913 25.039557,26.8117089 C25.039557,27.6335047 24.71964,28.4063489 24.1386472,28.9873418 L11.6267801,41.4992089 C11.1229233,42.0030657 1.89873418,50.5948378 1.89873418,50.5948378 C1.89873418,44.7102453 3.21845332,41.2030261 6.7681962,37.6532832 L19.7858979,24.6355815 Z" id="Fill-11-Copy" fill="#FFFFFF"></path>
                    <path d="M5.80179411,45.0085843 C8.6060827,42.3911388 10.4242847,40.6877925 10.6198242,40.492253 L23.1316913,27.9803859 C23.4455035,27.6665737 23.6155063,27.2559918 23.6155063,26.8117089 C23.6155063,26.3673772 23.4454691,25.9568096 23.1311968,25.6425373 C22.9208817,25.4322223 22.6633479,25.2863267 22.4023951,25.2194087 L22.2767827,25.1884728 C22.1696138,25.1682734 22.0651397,25.1582278 21.9620253,25.1582278 C21.5176937,25.1582278 21.1071261,25.3282651 20.7928538,25.6425373 L7.77515206,38.6602391 C5.25615627,41.1792349 3.97597808,43.6225595 3.52083439,47.1363999 C4.30065536,46.4092784 5.06921679,45.6923459 5.80179411,45.0085843 Z M21.9620253,22.3101266 C22.2447891,22.3101266 22.5256757,22.3371349 22.8660978,22.4027234 L23.0803106,22.4533015 C23.861328,22.6527568 24.5716371,23.0551542 25.1451085,23.6286256 C25.9935418,24.4770589 26.4636076,25.612068 26.4636076,26.8117089 C26.4636076,28.0112151 25.993637,29.1462637 25.145603,29.9942976 L12.6337359,42.5061647 C12.3998735,42.7400272 10.6516512,44.3778144 7.76028842,47.0765325 C6.6785264,48.0862107 5.53578251,49.1519272 4.39304652,50.2170497 C3.99309513,50.5898368 3.74550835,50.8205588 3.28841038,51.2464645 C2.9455722,51.5658708 2.9455722,51.5658708 2.8693346,51.6368815 L0.474683544,53.8673536 L0.474683544,50.5948378 C0.474683544,44.3480003 1.93162165,40.4759461 5.76124034,36.6463274 L18.7789421,23.6286256 C19.6273753,22.7801924 20.7623844,22.3101266 21.9620253,22.3101266 Z" id="Fill-11-Copy" fill="#242120" fill-rule="nonzero"></path>
                    <polygon id="Path-9" fill="#FFFFFF" points="3.51261187 46.9936709 3.32278481 51.2658228 3.79746835 52.2151899 12.8164557 43.1962025 9.96835443 40.3481013 4.2721519 46.0443038"></polygon>
                </g>
            </g>
        </g>
    </g>
</svg>