<?xml version="1.0" encoding="UTF-8"?>
<svg width="90px" height="75px" viewBox="0 0 90 75" version="1.1" xmlns="http://www.w3.org/2000/svg" xmlns:xlink="http://www.w3.org/1999/xlink">
    <!-- Generator: Sketch 64 (93537) - https://sketch.com -->
    <title>Icons / Use Cases / icon-office-move-accent</title>
    <desc>Created with Sketch.</desc>
    <g id="Icons-/-Use-Cases-/-icon-office-move-accent" stroke="none" stroke-width="1" fill="none" fill-rule="evenodd">
        <g id="OfficeMoves" transform="translate(8.000000, 0.000000)">
            <path d="M68.8461304,40.8653846 C66.9233424,40.785449 64.6278276,39.9186776 63.4234968,38.5751818 L45.6314719,65.1950814 L52.6711007,65.1950814 L68.8461304,40.8653846 Z" id="Fill-12" fill="#E7412A" fill-rule="nonzero"></path>
            <path d="M23.8321699,9.39859545 C23.8726193,9.74289633 23.9005486,15.0932839 23.9005486,15.0932839 L43.2692308,14.4230769 C42.8897775,13.5688255 42.890259,9.69387559 43.2706754,8.83866109 L23.8321699,9.39859545 Z" id="Fill-13" fill="#E7412A" fill-rule="nonzero" transform="translate(33.551423, 11.965972) rotate(2.000000) translate(-33.551423, -11.965972) "></path>
            <path d="M53.3653846,12.9807692 C52.6628182,14.7167198 51.2755023,16.101628 49.5381071,16.8017867 L63.4615385,33.6538462 C64.5382612,32.1711854 66.1870531,31.1353936 68.0833564,30.8695836 L53.3653846,12.9807692 Z" id="Fill-14" fill="#E7412A" fill-rule="nonzero"></path>
            <path d="M68.8960545,39.6644988 L71.0288692,39.7531658 L53.3153364,66.3970044 L43.3824684,66.3970044 L63.2847741,36.6197654 L64.3184725,37.7729115 C65.2384419,38.7991869 67.1794837,39.5931363 68.8960545,39.6644988 Z M63.6692329,40.3704881 L47.8804754,63.9931583 L52.026865,63.9931583 L66.8030155,41.7675878 C65.6664921,41.4782493 64.568715,40.9955509 63.6692329,40.3704881 Z" id="Fill-12" fill="#242120" fill-rule="nonzero"></path>
            <path d="M22.6384565,9.5388359 L22.4852753,8.23497169 L45.1450216,7.58224813 L44.3688535,9.32715249 C44.2841877,9.51748988 44.1871493,10.5301981 44.186925,11.6314749 C44.1867008,12.7323715 44.2832829,13.7451949 44.3676641,13.9351595 L45.0906054,15.562695 L22.7051029,16.3372918 L22.6986419,15.0995579 C22.6977125,14.9215251 22.6959182,14.6096355 22.6933255,14.2085455 C22.6890045,13.5400869 22.6840185,12.8716615 22.6784355,12.2480193 C22.6651225,10.7609012 22.647336,9.61441686 22.6384565,9.5388359 Z M25.0821853,12.2265004 C25.08683,12.7453309 25.0910605,13.2947198 25.0948401,13.8493158 L41.8508788,13.2695132 C41.7628731,12.2819944 41.7605519,11.0822299 41.8438557,10.0821829 L25.0642058,10.5655278 C25.0704021,11.0048691 25.0761834,11.5560639 25.0821853,12.2265004 Z" id="Fill-13" fill="#242120" fill-rule="nonzero" transform="translate(33.815148, 11.959770) rotate(2.000000) translate(-33.815148, -11.959770) "></path>
            <path d="M52.2512479,12.5298607 L53.0094628,10.6564098 L70.3741516,31.7621503 L68.2502021,32.05987 C66.7131368,32.2753246 65.3410273,33.1112134 64.4340685,34.360107 L63.5227674,35.6149801 L47.5652469,16.300985 L49.0888489,15.6869835 C50.5238395,15.1086919 51.6710951,13.9633432 52.2512479,12.5298607 Z M51.4051847,17.1745556 L63.4935346,31.8055461 C64.2165944,31.1239319 65.0587675,30.5801893 65.9786732,30.2032248 L53.5579043,15.1065232 C52.974621,15.9214597 52.244209,16.623614 51.4051847,17.1745556 Z" id="Fill-14" fill="#242120" fill-rule="nonzero"></path>
            <path d="M30.8135324,70.0456307 L30.8135324,72.8949011 L69.2765155,72.8949011 C69.2765155,71.8518861 69.2765155,63.5737372 69.2765155,63.5737372 L30.8135324,63.5737372 L30.8135324,70.0456307 Z" id="Fill-15" fill="#FFFFFF"></path>
            <path d="M29.3712247,62.1314295 L70.7188232,62.1314295 L70.7188232,74.3372088 L29.3712247,74.3372088 L29.3712247,62.1314295 Z M32.2558401,71.4525934 L67.8342078,71.4525934 C67.8342078,71.5171194 67.8342078,71.363786 67.8342078,71.1816482 L67.8342078,67.8431885 C67.8342078,65.7012476 67.8342078,64.9776563 67.8342078,64.4327634 L32.2558401,65.0160449 L32.2558401,71.4525934 Z" id="Fill-15" fill="#242120" fill-rule="nonzero"></path>
            <path d="M61.7499718,35.9100466 C61.7499718,38.8258256 64.1218045,41.1982249 67.0381501,41.1982249 C69.953929,41.1982249 72.3268949,38.8258256 72.3268949,35.9100466 C72.3268949,32.9942676 69.953929,30.6213018 67.0381501,30.6213018 C64.1218045,30.6213018 61.7499718,32.9942676 61.7499718,35.9100466 Z" id="Fill-16" fill="#FFFFFF"></path>
            <path d="M60.3076641,35.9100466 C60.3076641,32.1974713 63.3254717,29.1789941 67.0381501,29.1789941 C70.7504936,29.1789941 73.7692026,32.1977031 73.7692026,35.9100466 C73.7692026,39.6223301 70.7505537,42.6405325 67.0381501,42.6405325 C63.3254116,42.6405325 60.3076641,39.6225618 60.3076641,35.9100466 Z M63.1922795,35.9100466 C63.1922795,38.0294805 64.9185885,39.7559172 67.0381501,39.7559172 C69.1575201,39.7559172 70.8845872,38.0291055 70.8845872,35.9100466 C70.8845872,33.7908322 69.1573645,32.0636095 67.0381501,32.0636095 C64.918744,32.0636095 63.1922795,33.7904571 63.1922795,35.9100466 Z" id="Fill-16" fill="#242120" fill-rule="nonzero"></path>
            <path d="M42.6775148,12.5099007 C42.6775148,15.4256797 45.0493474,17.798079 47.965693,17.798079 C50.881472,17.798079 53.2544379,15.4256797 53.2544379,12.5099007 C53.2544379,9.59412177 50.881472,7.2211559 47.965693,7.2211559 C45.0493474,7.2211559 42.6775148,9.59412177 42.6775148,12.5099007 Z" id="Fill-16-Copy" fill="#FFFFFF"></path>
            <path d="M41.2352071,12.5099007 C41.2352071,8.79732541 44.2530146,5.77884821 47.965693,5.77884821 C51.6780365,5.77884821 54.6967456,8.79755722 54.6967456,12.5099007 C54.6967456,16.2221842 51.6780966,19.2403867 47.965693,19.2403867 C44.2529546,19.2403867 41.2352071,16.222416 41.2352071,12.5099007 Z M44.1198225,12.5099007 C44.1198225,14.6293346 45.8461314,16.3557713 47.965693,16.3557713 C50.085063,16.3557713 51.8121302,14.6289596 51.8121302,12.5099007 C51.8121302,10.3906863 50.0849075,8.66346359 47.965693,8.66346359 C45.846287,8.66346359 44.1198225,10.3903112 44.1198225,12.5099007 Z" id="Fill-16-Copy" fill="#242120" fill-rule="nonzero"></path>
            <g id="Group-20" transform="translate(9.615385, 1.923077)" fill="#FFFFFF">
                <path d="M8.48250816,0 C8.36628216,0 8.25949583,0.0266513516 8.14503976,0.0322037165 C3.96680344,0.202106083 0.628698225,3.41859108 0.628698225,7.39186341 C0.628698225,7.7705347 0.628698225,17.3310514 0.628698225,20.6119438 C3.06590442,20.8651316 5.6924941,20.9956122 8.48309814,20.9956122 C11.2737022,20.9956122 13.8997019,20.8651316 16.3369081,20.6119438 L16.3369081,13.0197405 L16.2702404,6.47849938 C15.8035664,2.93720104 12.6719541,0.188780407 8.81997655,0.0322037165 C8.70552049,0.0266513516 8.59814418,0 8.48250816,0 Z" id="Fill-19"></path>
            </g>
            <g id="Group-20">
                <path d="M18.0978928,0.480769231 C18.2332703,0.480769231 18.323903,0.489557701 18.4709191,0.509201565 C23.0157404,0.697966928 26.7531742,3.94546706 27.3155698,8.2131375 L27.3278578,8.3868772 L27.3946004,14.9428174 L27.3946004,23.8352569 L26.101324,23.9696082 C23.5982143,24.2296424 20.920839,24.3609968 18.0984828,24.3609968 C15.2759836,24.3609968 12.598031,24.2296288 10.0950515,23.9696082 L8.80177515,23.8352569 L8.80177515,9.31494033 C8.80177515,4.56393328 12.7515161,0.715461513 17.6905389,0.514667053 C17.8723373,0.489417148 17.9600788,0.480769231 18.0978928,0.480769231 Z M17.8190255,3.39639736 C14.3742682,3.53647378 11.6863905,6.15543575 11.6863905,9.31494033 L11.6863905,16.465738 C11.6863905,19.2689846 11.6863905,19.8602571 11.6863905,21.2214588 C13.712998,21.3907475 15.8560845,21.4763814 18.0984828,21.4763814 C20.3407686,21.4763814 22.4834502,21.3907564 24.5100599,21.2214619 L24.5100599,14.9575165 L24.4443332,8.50860404 C24.0317796,5.7019946 21.4957434,3.52317859 18.3654757,3.39589423 C18.2702074,3.39127267 18.2096006,3.38453501 18.0977983,3.36959886 C17.9860937,3.3845432 17.9255331,3.39127449 17.8190255,3.39639736 Z" id="Fill-19" fill="#242120" fill-rule="nonzero"></path>
                <path d="M1.92307692,34.3073918 C1.92307692,34.3073918 5.40412737,38.4173331 18.3055389,38.4173331 C31.2069504,38.4173331 34.6880008,34.3073918 34.6880008,34.3073918 C34.6880008,28.4316445 31.6042206,22.2674549 26.9795134,18.6390533 C24.3609005,19.0430651 21.44903,19.2501271 18.3060204,19.2501271 C15.1625293,19.2501271 12.2506587,19.0430651 9.63156435,18.6390533 C5.00733866,22.2669733 1.92307692,28.4311629 1.92307692,34.3073918 Z" id="Fill-18" fill="#FFFFFF"></path>
                <path d="M0.822489131,35.239571 L0.480769231,34.8361156 L0.480769231,34.3073918 C0.480769231,28.0222597 3.74093179,21.4273143 8.74129514,17.5042968 L9.2333472,17.1182426 L9.8514487,17.2136051 C12.4033617,17.6072538 15.2437444,17.8078194 18.3060204,17.8078194 C21.3679267,17.8078194 24.2082797,17.6072392 26.7595895,17.2136112 L27.3777236,17.1182426 L27.8697983,17.5043092 C32.8703558,21.4275911 36.1303085,28.0224063 36.1303085,34.3073918 L36.1303085,34.8361156 L35.7885886,35.239571 C35.6064409,35.4546257 35.2818056,35.7576826 34.7927822,36.1145917 C34.0396368,36.6642678 33.0777607,37.2020177 31.8862966,37.6950672 C28.5988849,39.055458 24.1311711,39.8596408 18.3055389,39.8596408 C12.4799066,39.8596408 8.01219281,39.055458 4.72478112,37.6950672 C3.533317,37.2020177 2.5714409,36.6642678 1.81829551,36.1145917 C1.32927213,35.7576826 1.00463678,35.4546257 0.822489131,35.239571 Z M3.51885571,33.7845486 C4.08554291,34.19814 4.8466685,34.6236576 5.82777605,35.0296577 C8.74771198,36.2379803 12.8424361,36.9750254 18.3055389,36.9750254 C23.7686417,36.9750254 27.8633657,36.2379803 30.7833017,35.0296577 C31.7644092,34.6236576 32.5255348,34.19814 33.092222,33.7845486 C33.1432364,33.7473162 33.1901095,33.7121997 33.2329582,33.6793428 C33.0309927,28.6727243 30.4420925,23.4422488 26.5611213,20.1583961 C24.0287045,20.5131798 21.2597053,20.6924348 18.3060204,20.6924348 C15.3519517,20.6924348 12.5828691,20.5131869 10.049961,20.1583961 C6.16914889,23.4420263 3.58009355,28.6726092 3.37811979,33.679343 C3.42096843,33.7121998 3.46784138,33.7473163 3.51885571,33.7845486 Z" id="Fill-18" fill="#242120" fill-rule="nonzero"></path>
                <path d="M6.14245357,31.9351476 C6.54210188,32.2442903 7.37307512,32.641638 8.75419677,33.0160908 C10.9471116,33.6106388 13.9354674,33.9630562 17.8457374,33.9630562 C21.7560073,33.9630562 24.7443631,33.6106388 26.937278,33.0160908 C28.3183996,32.641638 29.1493729,32.2442903 29.5490212,31.9351476 L28.3723899,30.4140416 C28.1815933,30.5616298 27.5798249,30.8493782 26.4340563,31.1600216 C24.4154875,31.7073006 21.5945074,32.0399793 17.8457374,32.0399793 C14.0969674,32.0399793 11.2759873,31.7073006 9.25741845,31.1600216 C8.11164989,30.8493782 7.50988149,30.5616298 7.31908489,30.4140416 L6.14245357,31.9351476 Z" id="Fill-18" fill="#242120" fill-rule="nonzero"></path>
            </g>
        </g>
    </g>
</svg>