<?xml version="1.0" encoding="UTF-8"?>
<svg width="108px" height="60px" viewBox="0 0 108 60" version="1.1" xmlns="http://www.w3.org/2000/svg" xmlns:xlink="http://www.w3.org/1999/xlink">
    <title>icon-big-box-retailers</title>
    <g id="Primary-Pages" stroke="none" stroke-width="1" fill="none" fill-rule="evenodd">
        <g id="Home" transform="translate(-321.000000, -1018.000000)">
            <g id="icon-big-box-retailers" transform="translate(321.000000, 1018.000000)">
                <path d="M3.24993034,60 L104.143205,60 L104.143205,22.3232432 L3.24993034,22.3232432 L3.24993034,60 Z M5.68575313,57.5691892 L101.707383,57.5691892 L101.707383,24.7540541 L5.68575313,24.7540541 L5.68575313,57.5691892 Z" id="Fill-2" fill="#000000"></path>
                <polygon id="Fill-3" fill="#E7412A" points="1.1569752 25.0167568 106.236973 25.0167568 106.236973 19.6281081 1.1569752 19.6281081"></polygon>
                <path d="M0,26.1721622 L107.393136,26.1721622 L107.393136,18.4743243 L0,18.4743243 L0,26.1721622 Z M2.3139504,23.8621622 L105.078373,23.8621622 L105.078373,20.7835135 L2.3139504,20.7835135 L2.3139504,23.8621622 Z" id="Fill-4" fill="#000000"></path>
                <polygon id="Fill-5" fill="#FFFFFF" points="26.267562 58.8454054 81.1255737 58.8454054 81.1255737 1.15459459 26.267562 1.15459459"></polygon>
                <path d="M25.1113993,60 L82.2825489,60 L82.2825489,0 L25.1113993,0 L25.1113993,60 Z M27.4253497,57.6916216 L79.9685985,57.6916216 L79.9685985,2.30918919 L27.4253497,2.30918919 L27.4253497,57.6916216 Z" id="Fill-6" fill="#000000"></path>
                <polygon id="Fill-7" fill="#E9E8E8" points="31.6266971 58.9791892 75.767251 58.9791892 75.767251 28.5875676 31.6266971 28.5875676"></polygon>
                <path d="M30.604594,60 L76.7893541,60 L76.7893541,27.5675676 L30.604594,27.5675676 L30.604594,60 Z M32.6488002,57.96 L74.7443355,57.96 L74.7443355,29.6083784 L32.6488002,29.6083784 L32.6488002,57.96 Z" id="Fill-8" fill="#000000"></path>
                <polygon id="Fill-9" fill="#E7412A" points="23.0176317 6.54324324 84.375504 6.54324324 84.375504 1.15459459 23.0176317 1.15459459"></polygon>
                <path d="M21.8606565,7.69702703 L85.5324792,7.69702703 L85.5324792,0 L21.8606565,0 L21.8606565,7.69702703 Z M24.1754193,5.38864865 L83.2185288,5.38864865 L83.2185288,2.30918919 L24.1754193,2.30918919 L24.1754193,5.38864865 Z" id="Fill-10" fill="#000000"></path>
                <line x1="42.1502153" y1="27.5675676" x2="42.1502153" y2="60" id="Stroke-11" stroke="#000000" stroke-width="1.899"></line>
                <path d="M42.1505403,60 L42.1505403,27.5675676 L42.1505403,60 Z" id="Fill-13" fill="#E7412A"></path>
                <line x1="65.2429204" y1="27.5675676" x2="65.2429204" y2="60" id="Stroke-14" stroke="#000000" stroke-width="1.899"></line>
                <path d="M65.2429204,60 L65.2429204,27.5675676 L65.2429204,60 Z" id="Fill-16" fill="#E7412A"></path>
                <line x1="53.6968116" y1="27.5675676" x2="53.6968116" y2="60" id="Stroke-17" stroke="#000000" stroke-width="1.899"></line>
                <path d="M53.6967303,60 L53.6967303,27.5675676 L53.6967303,60 Z" id="Fill-19" fill="#E7412A"></path>
                <polygon id="Fill-20" fill="#242120" points="74.4463981 20.9116216 75.9893025 20.9116216 75.9893025 11.9310811 66.0835149 11.9310811 66.0835149 13.4708108 74.4463981 13.4708108"></polygon>
            </g>
        </g>
    </g>
</svg>