<?xml version="1.0" encoding="UTF-8"?>
<svg width="90px" height="75px" viewBox="0 0 90 75" version="1.1" xmlns="http://www.w3.org/2000/svg" xmlns:xlink="http://www.w3.org/1999/xlink">
    <!-- Generator: Sketch 64 (93537) - https://sketch.com -->
    <title>Icons / Use Cases / icon-labor</title>
    <desc>Created with Sketch.</desc>
    <g id="Icons-/-Use-Cases-/-icon-labor" stroke="none" stroke-width="1" fill="none" fill-rule="evenodd">
        <g id="labor_icon" transform="translate(12.000000, 0.000000)">
            <ellipse id="Oval-15" fill="#E7412A" cx="33.4127316" cy="48.4423661" rx="24.1783615" ry="12.773474"></ellipse>
            <path d="M33.4127316,62.6581478 C19.3680013,62.6581478 7.79206244,56.5425574 7.79206244,48.4423661 C7.79206244,40.3421747 19.3680013,34.2265844 33.4127316,34.2265844 C47.4574619,34.2265844 59.0334008,40.3421747 59.0334008,48.4423661 C59.0334008,56.5425574 47.4574619,62.6581478 33.4127316,62.6581478 Z M33.4127316,59.7735324 C46.074682,59.7735324 56.1487854,54.4513645 56.1487854,48.4423661 C56.1487854,42.4333676 46.074682,37.1111998 33.4127316,37.1111998 C20.7507813,37.1111998 10.6766778,42.4333676 10.6766778,48.4423661 C10.6766778,54.4513645 20.7507813,59.7735324 33.4127316,59.7735324 Z" id="Oval-15" fill="#242120" fill-rule="nonzero"></path>
            <circle id="Oval" fill="#FFFFFF" cx="33.6538462" cy="16.3461538" r="13.4615385"></circle>
            <path d="M33.3425477,31.4964859 C25.2782,31.4964859 18.7407544,24.9590404 18.7407544,16.8946927 C18.7407544,8.83034493 25.2782,2.29289941 33.3425477,2.29289941 C41.4068954,2.29289941 47.944341,8.83034493 47.944341,16.8946927 C47.944341,24.9590404 41.4068954,31.4964859 33.3425477,31.4964859 Z M33.3425477,28.6118706 C39.8137664,28.6118706 45.0597256,23.3659113 45.0597256,16.8946927 C45.0597256,10.423474 39.8137664,5.17751479 33.3425477,5.17751479 C26.871329,5.17751479 21.6253698,10.423474 21.6253698,16.8946927 C21.6253698,23.3659113 26.871329,28.6118706 33.3425477,28.6118706 Z" id="Oval-1" fill="#242120" fill-rule="nonzero"></path>
            <polygon id="Rectangle-1" fill="#E9E8E8" points="4.67241514 42.0556291 61.6968526 42.0556291 61.6968526 72.7610954 4.67241514 72.7610954"></polygon>
            <path d="M6.11472283,43.4979368 L6.11472283,71.3187877 L60.2545449,71.3187877 L60.2545449,43.4979368 L6.11472283,43.4979368 Z M63.1391603,40.6133214 L63.1391603,74.2034031 L3.23010744,74.2034031 L3.23010744,40.6133214 L63.1391603,40.6133214 Z" id="Rectangle-1" fill="#242120" fill-rule="nonzero"></path>
            <path d="M65.183122,66.0204489 C64.9659764,66.0455919 64.7449206,66.0585308 64.5207193,66.0585308 C61.4949221,66.0585308 59.0420288,63.7018498 59.0420288,60.7947365 C59.0420288,57.8876233 61.4949221,55.5309423 64.5207193,55.5309423 C64.7449206,55.5309423 64.9659764,55.5438812 65.183122,55.5690242 L65.183122,66.0204489 L65.183122,66.0204489 Z" id="Oval-3" fill="#FFFFFF"></path>
            <path d="M63.7408143,57.0443745 C61.8767598,57.389345 60.4843364,58.9472464 60.4843364,60.7947365 C60.4843364,62.6422267 61.8767598,64.2001281 63.7408143,64.5450986 L63.7408143,57.0443745 Z M65.3490164,67.4531842 C65.0753388,67.484873 64.7988857,67.5008385 64.5207193,67.5008385 C60.7109836,67.5008385 57.5997211,64.5116121 57.5997211,60.7947365 C57.5997211,57.077861 60.7109836,54.0886346 64.5207193,54.0886346 C64.7988857,54.0886346 65.0753388,54.1046001 65.3490164,54.1362889 L66.6254297,54.284083 L66.6254297,67.3053901 L65.3490164,67.4531842 Z" id="Oval-3" fill="#242120" fill-rule="nonzero"></path>
            <path d="M1.92307692,66.0204489 C2.14022255,66.0455919 2.36127839,66.0585308 2.58547965,66.0585308 C5.61127688,66.0585308 8.06417019,63.7018498 8.06417019,60.7947365 C8.06417019,57.8876233 5.61127688,55.5309423 2.58547965,55.5309423 C2.36127839,55.5309423 2.14022255,55.5438812 1.92307692,55.5690242 L1.92307692,66.0204489 L1.92307692,66.0204489 Z" id="Oval-3" fill="#FFFFFF"></path>
            <path d="M1.7571825,67.4531842 L0.480769231,67.3053901 L0.480769231,54.284083 L1.7571825,54.1362889 C2.03086018,54.1046001 2.30731325,54.0886346 2.58547965,54.0886346 C6.39521529,54.0886346 9.50647788,57.077861 9.50647788,60.7947365 C9.50647788,64.5116121 6.39521529,67.5008385 2.58547965,67.5008385 C2.30731325,67.5008385 2.03086018,67.484873 1.7571825,67.4531842 Z M6.6218625,60.7947365 C6.6218625,58.9472464 5.22943913,57.389345 3.36538462,57.0443745 L3.36538462,64.5450986 C5.22943913,64.2001281 6.6218625,62.6422267 6.6218625,60.7947365 Z" id="Oval-3" fill="#242120" fill-rule="nonzero"></path>
            <polygon id="Line" fill="#242120" fill-rule="nonzero" points="23.5686215 50.0262963 23.5686215 48.0262963 43.8164415 48.0262963 43.8164415 50.0262963"></polygon>
            <path d="M33.2103797,1.64570985 C40.79601,1.64570985 46.9939951,7.58692544 47.4049005,15.0699222 L19.0158588,15.0699222 C19.4267642,7.58692544 25.6247493,1.64570985 33.2103797,1.64570985 Z" id="Oval-1" fill="#E9E8E8"></path>
            <g id="Group" transform="translate(16.642012, 0.000000)" fill="#242120" fill-rule="nonzero">
                <path d="M3.98879803,13.6279588 L29.1479376,13.6279588 C28.089733,7.61915691 22.8388593,3.08801754 16.5683678,3.08801754 C10.2978763,3.08801754 5.04700269,7.61915691 3.98879803,13.6279588 Z M0.933688065,14.9912204 C1.38794285,6.71516099 8.2449085,0.203402155 16.5683678,0.203402155 C24.8918272,0.203402155 31.7487928,6.71516099 32.2030476,14.9912204 L32.2865514,16.5125742 L0.850184283,16.5125742 L0.933688065,14.9912204 Z" id="Oval-1"></path>
                <path d="M20.45387,12.9834558 C20.45387,7.73772106 16.2013618,3.48521283 10.955627,3.48521283 L10.955627,5.40828976 C15.1392757,5.40828976 18.5307931,8.79980712 18.5307931,12.9834558 L20.45387,12.9834558 Z" id="Oval-1" transform="translate(15.704749, 8.234334) rotate(-52.000000) translate(-15.704749, -8.234334) "></path>
                <polygon id="Line" points="29.6042899 16.549559 39.055207 16.549559 39.055207 13.6649436 29.6042899 13.6649436"></polygon>
            </g>
        </g>
    </g>
</svg>